<svg width="21" height="32" viewBox="0 0 21 32" fill="none" xmlns="http://www.w3.org/2000/svg">
<path d="M10.2982 0.0136995L10.5018 0C11.2612 0 11.8888 0.564298 11.988 1.29646L12.0018 1.49999L12 26.8919L18.4388 20.4495C18.9712 19.9169 19.8046 19.8681 20.392 20.3035L20.5602 20.4487C21.093 20.9809 21.1418 21.8143 20.7062 22.4017L20.5612 22.5701L11.5686 31.5701C11.0364 32.1027 10.203 32.1515 9.61559 31.7161L9.44739 31.5709L0.439775 22.5709C-0.146245 21.9853 -0.146645 21.0357 0.438895 20.4495C0.971194 19.9169 1.80451 19.8681 2.39191 20.3035L2.56021 20.4487L8.99999 26.8839L9.00179 1.49999C9.00179 0.740597 9.56599 0.113019 10.2982 0.0136995Z" fill="white"/>
</svg>
